<?xml version="1.0" encoding="UTF-8"?>
<svg id="Laag_1" data-name="Laag 1" xmlns="http://www.w3.org/2000/svg" viewBox="0 0 585 147.41">
  <path d="m54.07,54.9h4.93c.39,0,.71-.32.71-.71v-12.37c0-.39.32-.71.71-.71h11.24c.39,0,.71-.32.71-.71v-3.62c0-.39-.32-.71-.71-.71h-11.24c-.39,0-.71-.32-.71-.71v-8.6c0-.39.32-.71.71-.71h13.58c.39,0,.71-.32.71-.71v-3.59c0-.39-.32-.71-.71-.71h-19.92c-.39,0-.71.32-.71.71v32.42c0,.39.32.71.71.71Z"/>
  <path d="m96.76,41.21c-.39-.35-.31-.98.18-1.18.71-.3,1.37-.65,1.97-1.06.93-.62,1.71-1.35,2.34-2.18.63-.83,1.11-1.75,1.45-2.76.34-1.01.5-2.09.5-3.23,0-1.43-.25-2.75-.74-3.94-.49-1.19-1.26-2.22-2.32-3.08-1.05-.86-2.4-1.52-4.05-2-1.65-.48-3.62-.71-5.93-.71h-9.61c-.39,0-.71.32-.71.71v32.42c0,.39.32.71.71.71h4.88c.39,0,.71-.32.71-.71v-11.81c0-.39.32-.71.71-.71h1.98c.62,0,1.1.09,1.42.26.32.17.61.46.88.87l7.11,10.83c.27.41.59.72.97.94.38.22.85.33,1.39.33h4.33c.57,0,.9-.63.58-1.1l-7.72-11.39c-.31-.46-.66-.86-1.04-1.2Zm-3.58-4.48c-.88.3-1.92.44-3.1.44h-3.22c-.39,0-.71-.32-.71-.71v-9.82c0-.39.32-.71.71-.71h3.32c2.32,0,4.05.46,5.18,1.38,1.13.92,1.7,2.24,1.7,3.95,0,.86-.14,1.65-.42,2.36-.28.72-.71,1.34-1.28,1.86-.57.52-1.3.93-2.18,1.23Z"/>
  <path d="m137.11,25.89c-1.46-1.5-3.23-2.68-5.29-3.54-2.06-.85-4.34-1.28-6.84-1.28s-4.79.42-6.86,1.27c-2.07.85-3.84,2.03-5.31,3.54-1.47,1.51-2.61,3.3-3.42,5.37-.81,2.07-1.21,4.31-1.21,6.74s.4,4.67,1.21,6.74c.81,2.07,1.95,3.86,3.42,5.37,1.47,1.51,3.24,2.69,5.31,3.54,2.07.85,4.35,1.27,6.86,1.27s4.78-.42,6.84-1.27c2.06-.85,3.82-2.03,5.29-3.54,1.46-1.51,2.6-3.3,3.41-5.37.81-2.07,1.21-4.31,1.21-6.74s-.4-4.67-1.21-6.74c-.81-2.07-1.95-3.85-3.41-5.36Zm-2.42,16.98c-.48,1.44-1.17,2.66-2.07,3.66-.9,1-2,1.77-3.28,2.3-1.29.53-2.74.8-4.36.8s-3.08-.27-4.37-.8c-1.3-.53-2.4-1.3-3.31-2.3-.91-1-1.61-2.22-2.09-3.66-.49-1.44-.73-3.07-.73-4.89s.24-3.44.73-4.89c.49-1.44,1.19-2.67,2.09-3.67.91-1.01,2.01-1.78,3.31-2.31,1.3-.53,2.75-.8,4.37-.8s3.07.27,4.36.8c1.29.53,2.38,1.3,3.28,2.31.9,1.01,1.59,2.23,2.07,3.67.48,1.44.72,3.07.72,4.89s-.24,3.44-.72,4.89Z"/>
  <path d="m169.57,41.64c0,.45.01.94.04,1.46.02.52.07,1.06.13,1.6l-17.76-22.62c-.17-.22-.33-.39-.47-.53-.14-.13-.28-.23-.43-.3-.15-.07-.32-.12-.5-.14-.19-.02-.42-.04-.7-.04h-3.3v33.83h5.55v-20.78c0-.41-.01-.85-.04-1.35-.02-.49-.06-.99-.11-1.49l17.69,22.53c.31.41.63.69.96.84.33.16.74.23,1.24.23h3.25V21.07h-5.55v20.57Z"/>
  <path d="m180.94,26.24h8.81c.39,0,.71.32.71.71v27.25c0,.39.32.71.71.71h4.88c.39,0,.71-.32.71-.71v-27.25c0-.39.32-.71.71-.71h8.76c.39,0,.71-.32.71-.71v-3.76c0-.39-.32-.71-.71-.71h-25.28c-.39,0-.71.32-.71.71v3.76c0,.39.32.71.71.71Z"/>
  <path d="m232.81,49.87h-13.58c-.39,0-.71-.32-.71-.71v-8.16c0-.39.32-.71.71-.71h10.4c.39,0,.71-.32.71-.71v-3.43c0-.39-.32-.71-.71-.71h-10.4c-.39,0-.71-.32-.71-.71v-7.97c0-.39.32-.71.71-.71h13.58c.39,0,.71-.32.71-.71v-3.59c0-.39-.32-.71-.71-.71h-19.92c-.39,0-.71.32-.71.71v32.42c0,.39.32.71.71.71h19.92c.39,0,.71-.32.71-.71v-3.62c0-.39-.32-.71-.71-.71Z"/>
  <path d="m244.21,34.13c0-.41-.01-.85-.03-1.35-.02-.49-.06-.99-.11-1.49l17.69,22.53c.31.41.63.69.96.84.33.16.74.23,1.24.23h2.55c.39,0,.71-.32.71-.71V21.78c0-.39-.32-.71-.71-.71h-4.13c-.39,0-.71.32-.71.71v19.86c0,.45.01.94.03,1.46.02.52.07,1.06.13,1.6l-17.76-22.62c-.17-.22-.33-.39-.47-.53-.14-.13-.28-.23-.43-.3-.15-.07-.32-.12-.5-.14-.19-.02-.42-.04-.7-.04h-2.59c-.39,0-.71.32-.71.71v32.42c0,.39.32.71.71.71h4.13c.39,0,.71-.32.71-.71v-20.07Z"/>
  <path d="m292.35,53.66c2.11-.83,3.91-1.99,5.4-3.49,1.5-1.5,2.66-3.28,3.49-5.36.83-2.07,1.24-4.35,1.24-6.83s-.41-4.76-1.24-6.83c-.83-2.07-1.99-3.86-3.49-5.35-1.5-1.49-3.3-2.65-5.4-3.49-2.11-.83-4.44-1.25-7-1.25h-12.21c-.39,0-.71.32-.71.71v32.42c0,.39.32.71.71.71h12.21c2.56,0,4.89-.41,7-1.24Zm-13.57-26.88c0-.39.32-.71.71-.71h5.87c1.65,0,3.14.27,4.46.82,1.32.55,2.44,1.33,3.36,2.35.92,1.02,1.63,2.27,2.13,3.74.5,1.47.75,3.14.75,5s-.25,3.52-.75,5c-.5,1.47-1.21,2.72-2.13,3.74-.92,1.02-2.04,1.81-3.36,2.35-1.32.55-2.8.82-4.46.82h-5.87c-.39,0-.71-.32-.71-.71v-22.4Z"/>
  <path d="m583.82,106.54l-39.09-31.02c-4.1-3.25-8.91-4.97-13.92-4.97h-117.95l37.4-29.67c.75-.59,1.18-1.49,1.18-2.44s-.43-1.85-1.18-2.44l-9.89-7.85c-.23-.26-.51-.48-.82-.65l-23.4-18.57c-.23-.26-.5-.48-.82-.65l-4.16-3.3c-4.1-3.25-8.91-4.97-13.92-4.97H54.19c-5.01,0-9.82,1.72-13.92,4.97L1.18,35.99c-.75.59-1.18,1.49-1.18,2.44s.43,1.85,1.18,2.44l39.09,31.02c4.09,3.25,8.91,4.97,13.92,4.97h150.79l-37.4,29.67c-.75.59-1.18,1.49-1.18,2.44s.43,1.85,1.18,2.44l39.09,31.02c4.09,3.25,8.91,4.97,13.92,4.97h62.3s0,0,.01,0c0,0,0,0,.01,0h247.89c5.01,0,9.82-1.72,13.92-4.97l39.09-31.02c.75-.59,1.18-1.49,1.18-2.44s-.43-1.85-1.18-2.44Zm-321.72,34.64c-3.59,0-7.06-1.25-10.04-3.62l-36.01-28.58,36.01-28.58c2.57-2.04,5.52-3.25,8.58-3.54h6.59l-37.4,29.67c-.75.59-1.18,1.49-1.18,2.44s.43,1.85,1.18,2.44l37.49,29.75h-5.22Zm-21.49,0c-3.59,0-7.06-1.25-10.04-3.62l-36.01-28.58,36.01-28.58c2.57-2.04,5.52-3.25,8.58-3.54h7.33l-37.4,29.67c-.75.59-1.18,1.49-1.18,2.44s.43,1.85,1.18,2.44l37.49,29.75h-5.97ZM348.09,6.24l-24.94,64.31h-8.29l24.94-64.31h8.29Zm15.78,0l-24.94,64.31h-9.09l24.94-64.31h9.09Zm15.89,0l-24.94,64.31h-9.2l24.94-64.31h9.2Zm15.78,0l-24.94,64.31h-9.09l24.94-64.31h9.09Zm-91.53,75.01l-31.87,25.29c-.75.59-1.18,1.49-1.18,2.44s.43,1.85,1.18,2.44l15.42,12.24-2.54,6.54-26.74-21.22,36.01-28.58c2.57-2.04,5.52-3.25,8.58-3.54h2.84l-1.7,4.38Zm-4.46,11.51l-9.62,24.82-10.83-8.59,20.45-16.23Zm-18.16-15.89h7.33l-37.4,29.67c-.75.59-1.18,1.49-1.18,2.44s.43,1.85,1.18,2.44l31.34,24.87-1.84,4.73c-2.86-.38-5.61-1.55-8.02-3.47l-36.01-28.58,36.01-28.58c2.57-2.04,5.52-3.25,8.58-3.54Zm112.7-6.31l21.11-54.42,6.95,5.52-18.45,47.57c-1.59.72-3.27,1.17-4.98,1.34h-4.62Zm40.21-39.26l-7.83,20.18c-.05.14-.08.27-.11.41l-13.35,10.6,14.26-36.78,7.03,5.58Zm1.66,12.98l3.46-8.92,3.89,3.09-7.35,5.83Zm-25.88-32.2l-22.53,58.1c-.05.13-.07.26-.11.39h-10.15l24.65-63.56c1.89.6,3.7,1.56,5.35,2.87l2.79,2.21ZM44.15,67.01L8.14,38.43,44.15,9.85c2.98-2.37,6.45-3.62,10.04-3.62h278.91l-24.94,64.31h-87.56c-.58,0-1.16.03-1.73.07H54.19c-3.59,0-7.06-1.25-10.04-3.62Zm166.4,70.55l-36.01-28.58,36.01-28.58c2.57-2.04,5.52-3.25,8.58-3.54h5.86l-37.4,29.67c-.75.59-1.18,1.49-1.18,2.44s.43,1.85,1.18,2.44l37.49,29.75h-4.5c-3.59,0-7.06-1.25-10.04-3.62Zm330.29,0c-2.98,2.37-6.45,3.62-10.04,3.62h-243.35l24.94-64.31,218.4-.07c3.59,0,7.06,1.25,10.04,3.62l36.01,28.58-36.01,28.58Z"/>
  <path d="m319.09,125.89h4.93c.39,0,.71-.32.71-.71v-12.37c0-.39.32-.71.71-.71h11.24c.39,0,.71-.32.71-.71v-3.62c0-.39-.32-.71-.71-.71h-11.24c-.39,0-.71-.32-.71-.71v-8.6c0-.39.32-.71.71-.71h13.58c.39,0,.71-.32.71-.71v-3.59c0-.39-.32-.71-.71-.71h-19.92c-.39,0-.71.32-.71.71v32.42c0,.39.32.71.71.71Z"/>
  <path d="m345.57,125.89h19.92c.39,0,.71-.32.71-.71v-3.62c0-.39-.32-.71-.71-.71h-13.58c-.39,0-.71-.32-.71-.71v-8.16c0-.39.32-.71.71-.71h10.4c.39,0,.71-.32.71-.71v-3.43c0-.39-.32-.71-.71-.71h-10.4c-.39,0-.71-.32-.71-.71v-7.97c0-.39.32-.71.71-.71h13.58c.39,0,.71-.32.71-.71v-3.59c0-.39-.32-.71-.71-.71h-19.92c-.39,0-.71.32-.71.71v32.42c0,.39.32.71.71.71Z"/>
  <path d="m391.28,109.22c-.72-.66-1.53-1.21-2.45-1.65-.92-.43-1.85-.82-2.8-1.14-.95-.33-1.89-.64-2.8-.93-.92-.29-1.73-.62-2.45-.98-.72-.37-1.29-.81-1.73-1.33-.44-.52-.65-1.17-.65-1.95,0-.61.11-1.17.32-1.68.21-.51.54-.95.97-1.32.43-.37.97-.65,1.6-.86.63-.21,1.38-.31,2.23-.31.95,0,1.77.12,2.46.35.69.24,1.3.5,1.82.79.52.29.97.55,1.35.79.38.24.72.35,1.03.35s.57-.07.79-.21c.22-.14.42-.37.58-.71l1.25-2.41c.15-.29.09-.65-.16-.87-1.08-.92-2.34-1.65-3.8-2.19-1.65-.61-3.45-.92-5.4-.92-1.72,0-3.26.27-4.6.8-1.34.53-2.48,1.24-3.4,2.13-.92.89-1.63,1.9-2.11,3.04-.48,1.14-.72,2.32-.72,3.52,0,1.51.22,2.78.65,3.81.43,1.03,1.01,1.89,1.73,2.58.72.69,1.53,1.24,2.45,1.67.92.43,1.85.79,2.79,1.1.95.31,1.88.59,2.79.85.92.26,1.73.58,2.45.95.72.37,1.29.84,1.73,1.38.44.55.65,1.26.65,2.13,0,1.56-.48,2.75-1.44,3.58-.96.83-2.32,1.25-4.07,1.25-1.14,0-2.13-.16-2.94-.47-.82-.31-1.53-.66-2.13-1.04-.6-.38-1.13-.73-1.57-1.04-.44-.31-.85-.47-1.24-.47-.29,0-.55.07-.79.22-.24.15-.44.32-.61.54l-1.49,2.47c-.17.28-.13.66.11.88.54.5,1.13.96,1.78,1.39.82.53,1.69.99,2.63,1.37.94.38,1.92.68,2.94.88,1.02.21,2.06.31,3.11.31,1.83,0,3.46-.28,4.88-.84,1.42-.56,2.62-1.32,3.6-2.29.98-.97,1.73-2.11,2.24-3.41.51-1.3.77-2.7.77-4.2,0-1.37-.22-2.54-.65-3.5-.44-.96-1.01-1.77-1.73-2.44Z"/>
  <path d="m399.46,97.23h8.81c.39,0,.71.32.71.71v27.25c0,.39.32.71.71.71h4.88c.39,0,.71-.32.71-.71v-27.25c0-.39.32-.71.71-.71h8.76c.39,0,.71-.32.71-.71v-3.76c0-.39-.32-.71-.71-.71h-25.28c-.39,0-.71.32-.71.71v3.76c0,.39.32.71.71.71Z"/>
  <rect x="430.59" y="92.06" width="6.32" height="33.83" rx=".71" ry=".71"/>
  <path d="m469.99,92.06c-.53,0-.97.15-1.33.44-.36.3-.61.62-.75.98,0,0-7.07,18.73-8.87,24.08-.14.41-.7.41-.85,0-1.88-5.22-8.96-24.09-8.96-24.09-.17-.42-.43-.76-.77-1.03-.34-.27-.79-.4-1.33-.4h-4.03c-.5,0-.84.51-.66.97l13.09,32.42c.11.27.37.44.66.44h4.73c.29,0,.55-.17.66-.44l13.09-32.42c.19-.46-.15-.97-.66-.97h-4.03Z"/>
  <path d="m484.49,92.51l-12.73,32.42c-.18.46.16.97.66.97h3.85c.53,0,.98-.15,1.35-.44.37-.3.61-.62.74-.98l2.36-6.44c.1-.28.37-.46.66-.46h13.03c.3,0,.56.19.66.46l2.36,6.44c.16.41.41.75.76,1.02.35.27.8.41,1.35.41h3.83c.5,0,.84-.5.66-.97l-12.73-32.42c-.11-.27-.37-.45-.66-.45h-5.47c-.29,0-.55.18-.66.45Zm-.99,20.61c-.49,0-.83-.49-.66-.95l3.77-10.26c.2-.51.41-1.12.62-1.8.21-.69.42-1.43.64-2.22.22.8.44,1.53.67,2.21.23.68.43,1.27.62,1.77l3.77,10.3c.17.46-.17.95-.66.95h-8.76Z"/>
  <path d="m515,92.06h-4.65c-.45,0-.82.37-.82.82v32.19c0,.45.37.82.82.82h18.2c.45,0,.82-.37.82-.82v-3.55c0-.45-.37-.82-.82-.82h-11.91c-.45,0-.82-.37-.82-.82v-27c0-.45-.37-.82-.82-.82Z"/>
</svg>